<svg xmlns="http://www.w3.org/2000/svg" viewBox="0 0 38 38"><defs><style>.cls-1{fill:#d53692;}</style></defs><g id="Capa_2" data-name="Capa 2"><g id="ELEMENTS"><path class="cls-1" d="M19,7.49a.87.87,0,0,0-.88.88v1.94c-2.58.42-4.24,2.19-4.24,4.52s1.79,3.75,4.65,4.87c2.08.85,3.16,1.79,3.16,3.34s-1.34,2.75-3.34,2.75a7.45,7.45,0,0,1-3-.68,1.13,1.13,0,0,0-.44-.1,1,1,0,0,0-.44,1.9,9.09,9.09,0,0,0,3.51.79v1.93a.88.88,0,1,0,1.76,0v-2a4.86,4.86,0,0,0,4.43-4.77c0-2.5-1.46-3.94-4.35-5.12-2.44-1-3.47-1.76-3.47-3.2,0-1.14.82-2.43,3-2.43a7,7,0,0,1,2.63.51,1,1,0,1,0,.73-1.82,8.05,8.05,0,0,0-2.76-.55V8.37A.87.87,0,0,0,19,7.49Z"/><path class="cls-1" d="M19,3A16,16,0,1,1,3,19,16,16,0,0,1,19,3m0-3A19,19,0,1,0,38,19,19,19,0,0,0,19,0Z"/></g></g></svg>