<?xml version="1.0" encoding="utf-8"?>
<!-- Generator: Adobe Illustrator 24.0.2, SVG Export Plug-In . SVG Version: 6.00 Build 0)  -->
<svg version="1.1" id="Capa_1" xmlns="http://www.w3.org/2000/svg" xmlns:xlink="http://www.w3.org/1999/xlink" x="0px" y="0px"
	 viewBox="0 0 38 38" style="enable-background:new 0 0 38 38;" xml:space="preserve">
<style type="text/css">
	.st0{fill:#2EC9E5;}
</style>
<g id="Capa_2_1_">
	<g id="ELEMENTS">
		<path class="st0" d="M19,7.5c-0.5,0-0.9,0.4-0.9,0.9c0,0,0,0,0,0v1.9c-2.6,0.4-4.2,2.2-4.2,4.5s1.8,3.7,4.6,4.9
			c2.1,0.9,3.2,1.8,3.2,3.3s-1.3,2.8-3.3,2.8c-1,0-2.1-0.2-3-0.7C15.2,25,15.1,25,14.9,25c-0.6,0-1,0.4-1,1c0,0.4,0.2,0.7,0.6,0.9
			c1.1,0.5,2.3,0.8,3.5,0.8v1.9c0,0.5,0.4,0.9,0.9,0.9c0.5,0,0.9-0.4,0.9-0.9v-2c2.5-0.2,4.4-2.3,4.4-4.8c0-2.5-1.5-3.9-4.4-5.1
			c-2.4-1-3.5-1.8-3.5-3.2c0-1.1,0.8-2.4,3-2.4c0.9,0,1.8,0.2,2.6,0.5c0.5,0.3,1.1,0.2,1.4-0.3c0.3-0.5,0.2-1.1-0.3-1.4
			c-0.1-0.1-0.2-0.1-0.4-0.1c-0.9-0.3-1.8-0.5-2.8-0.6V8.4C20,7.9,19.6,7.5,19,7.5C19.1,7.5,19,7.5,19,7.5z"/>
		<path class="st0" d="M19,3c8.8,0,16,7.2,16,16s-7.2,16-16,16S3,27.8,3,19S10.2,3,19,3 M19,0C8.5,0,0,8.5,0,19s8.5,19,19,19
			s19-8.5,19-19S29.5,0,19,0z"/>
	</g>
</g>
</svg>
