<svg xmlns="http://www.w3.org/2000/svg" viewBox="0 0 38 38"><defs><style>.cls-1{fill:#fff;}</style></defs><g id="Capa_2" data-name="Capa 2"><g id="ELEMENTS"><path class="cls-1" d="M19.09,15.46A3.52,3.52,0,1,0,22.61,19,3.52,3.52,0,0,0,19.09,15.46Z"/><path class="cls-1" d="M23.45,9.93h-8.9A4.6,4.6,0,0,0,10,14.53v8.89A4.6,4.6,0,0,0,14.55,28h8.9a4.61,4.61,0,0,0,4.6-4.6V14.53A4.61,4.61,0,0,0,23.45,9.93ZM19.09,24.46A5.49,5.49,0,1,1,24.58,19,5.49,5.49,0,0,1,19.09,24.46Zm5.81-10a1.31,1.31,0,1,1,1.31-1.31A1.31,1.31,0,0,1,24.9,14.43Z"/><path class="cls-1" d="M19,0A19,19,0,1,0,38,19,19,19,0,0,0,19,0ZM30.14,23.42a6.7,6.7,0,0,1-6.69,6.7h-8.9a6.7,6.7,0,0,1-6.69-6.7V14.53a6.7,6.7,0,0,1,6.69-6.69h8.9a6.7,6.7,0,0,1,6.69,6.69Z"/></g></g></svg>