<svg xmlns="http://www.w3.org/2000/svg" viewBox="0 0 188.69 165.8"><defs><style>.cls-1{fill:#fff;}</style></defs><g id="Capa_2" data-name="Capa 2"><g id="Capa_1-2" data-name="Capa 1"><path class="cls-1" d="M79.13,36.12q16.2,0,24.73,7.28T112.39,64q0,14.52-9.7,22.72t-25.25,8.2H52.26v-.41q6.41-2.34,6.36-6.07V40.92q0-3.62-6.36-4.35v-.45Zm2.62,57.3q9,0,13.72-5.58t4.74-19.12q0-14.52-6.09-22.88T75.76,37.47H70.14V91.08A28.78,28.78,0,0,0,81.75,93.42Z"/><path class="cls-1" d="M135.86,128.61l.37.17-4.39,17.14-.49,1.85-2.88-1.85H85.74v-.41a9.76,9.76,0,0,0,4.57-3.42,9.07,9.07,0,0,0,1.78-5.56V91.9q0-3.6-6.35-4.34v-.45h25.1v.45a14.89,14.89,0,0,0-5.42,1.29,3.22,3.22,0,0,0-1.8,3.05v52.67h6.48a31.93,31.93,0,0,0,4.39-.29l3.65-.49a9.62,9.62,0,0,0,3.32-1.13c1.15-.61,2-1.07,2.69-1.35a10.76,10.76,0,0,0,2.56-1.95c1.07-1,1.81-1.7,2.24-2.05a23.61,23.61,0,0,0,2.31-2.65c1.12-1.41,1.85-2.33,2.18-2.79Z"/><path class="cls-1" d="M19.94,151.65c-1.8-2.38-2.63-4.6-2.51-6.66a7.06,7.06,0,0,1,3.12-5.31A7.77,7.77,0,0,1,27.18,138a10.38,10.38,0,0,1,6,4.19l4.2,5.56-.1.06c-1.05-.68-1.85-.81-2.39-.39l-10.48,7.91c-.53.4-.5,1.11.1,2.13l-.1.07Zm12.19-10.11a4.68,4.68,0,0,0-3.51-2.1c-1.34-.08-3,.64-5,2.14a10.55,10.55,0,0,0-4,5.15,5.85,5.85,0,0,0,1.21,5.44l.93,1.24,11.82-8.92A7.9,7.9,0,0,0,32.13,141.54Z"/><path class="cls-1" d="M25.67,130.88l-.1.05c-.64-1-1.25-1.36-1.86-1.06l-12.24,5.91c-.6.29-.7,1-.32,2.1l-.11.06-2.91-6,.11-.05c.63,1,1.25,1.35,1.85,1.07L22.33,127c.6-.28.71-1,.32-2.11l.11,0Z"/><path class="cls-1" d="M2.1,113.56l3.71-1.92.07.07c-.6.72-1,1.27-1.33,1.65a6.93,6.93,0,0,0-.76,1.36,3.78,3.78,0,0,0-.33,1.59,7.71,7.71,0,0,0,.31,1.87l.82,2.95L12.1,119,11.52,117a6.36,6.36,0,0,0-1.4-2.86,3.4,3.4,0,0,0-2.46-.76l5.65-1.58a3.39,3.39,0,0,0-1.7,1.92,6.43,6.43,0,0,0,.27,3.18l.58,2.08,6.15-1.71c.64-.18.87-.86.69-2l.11,0,1.8,6.46-.11,0c-.73-1-1.43-1.43-2.09-1.24L6.36,123.94c-.64.18-.87.85-.68,2l-.12,0Z"/><path class="cls-1" d="M16.88,96.69a9.36,9.36,0,0,1-.09,1.67,7.36,7.36,0,0,1-.53,1.8,5.76,5.76,0,0,1-1.08,1.68,5.42,5.42,0,0,1-1.83,1.25,7.66,7.66,0,0,1-2.7.56L1.89,104q-1,0-1.14,1.8H.63L.38,99.07H.51c.18,1.17.6,1.75,1.26,1.72l9.05-.33a7.54,7.54,0,0,0,2.63-.52,3.73,3.73,0,0,0,1.62-1.16,4.45,4.45,0,0,0,.75-1.42A4.22,4.22,0,0,0,16,95.9a4.75,4.75,0,0,0-.37-1.68,5.46,5.46,0,0,0-1-1.54,4.43,4.43,0,0,0-1.73-1.14,6.16,6.16,0,0,0-2.49-.37l-6.63.24A5.31,5.31,0,0,0,1.09,92a1.91,1.91,0,0,0-.81,1.52H.16L0,89.29H.12A2.83,2.83,0,0,0,.3,90a1.45,1.45,0,0,0,.42.52,1.91,1.91,0,0,0,1,.37,8.93,8.93,0,0,0,1.64.07l6.82-.25A6.42,6.42,0,0,1,15,92.25,6.15,6.15,0,0,1,16.88,96.69Z"/><path class="cls-1" d="M8.63,76.15q2.3-5.13,6-4.41a4.48,4.48,0,0,1,3.2,2.39A7.19,7.19,0,0,1,18.28,79,10.39,10.39,0,0,1,17,82.48a7.18,7.18,0,0,1-2.05,2.28L12,82A4.34,4.34,0,0,0,16,81.4a5.3,5.3,0,0,0,2.14-3.35,3.76,3.76,0,0,0,0-1.67,2.37,2.37,0,0,0-.64-1.17,3.79,3.79,0,0,0-.92-.65,3.67,3.67,0,0,0-1-.34,2.29,2.29,0,0,0-2.24.57,11.23,11.23,0,0,0-1.83,3,8.37,8.37,0,0,1-3,3.9,4.63,4.63,0,0,1-3.4.68,4,4,0,0,1-3-2.3,7.45,7.45,0,0,1-.35-4.65A8.13,8.13,0,0,1,5,70.12L7.87,73A4.11,4.11,0,0,0,4,73.39,4.9,4.9,0,0,0,1.89,76.6a2.55,2.55,0,0,0,.4,2.26,3.18,3.18,0,0,0,1.82,1,3.25,3.25,0,0,0,1.56,0A2.73,2.73,0,0,0,6.91,79a8.11,8.11,0,0,0,.92-1.24A13.83,13.83,0,0,0,8.63,76.15Z"/><path class="cls-1" d="M20.55,69l-.11,0c.3-1.15.14-1.84-.49-2.08L7.28,61.92c-.62-.24-1.21.16-1.76,1.21l-.12-.05,2.43-6.25.12.05c-.3,1.14-.14,1.84.48,2.08L21.1,63.88c.62.24,1.21-.17,1.77-1.21l.11,0Z"/><path class="cls-1" d="M13.44,49.5A9.21,9.21,0,0,1,15,42.86a9.14,9.14,0,0,1,5.41-4.13,7.91,7.91,0,0,1,6.52,1.2,8,8,0,0,1,3.8,5.45A9.12,9.12,0,0,1,29.18,52a9.17,9.17,0,0,1-5.42,4.15A7.92,7.92,0,0,1,17.22,55,7.94,7.94,0,0,1,13.44,49.5ZM29.35,51a3.85,3.85,0,0,0,.3-3.78,8.13,8.13,0,0,0-3.27-3.6,12.68,12.68,0,0,0-4.23-1.75,9.49,9.49,0,0,0-4.31,0,4.81,4.81,0,0,0-3,2.07,3.88,3.88,0,0,0-.32,3.77,8,8,0,0,0,3.26,3.6A12.66,12.66,0,0,0,22,53.05a9.54,9.54,0,0,0,4.32,0A4.84,4.84,0,0,0,29.35,51Z"/><path class="cls-1" d="M34.36,21.38l3-2.67.08.09a2.44,2.44,0,0,0-.41.59,1.54,1.54,0,0,0-.09.69,2.23,2.23,0,0,0,.41,1.06,11,11,0,0,0,1.15,1.46l5.87,6.48q1.59,1.76,3.07,3.23v.06L28.61,29.81,35.16,37A6.83,6.83,0,0,0,37.54,39a1.64,1.64,0,0,0,1.59-.16l.08.08-3,2.68-.07-.09a2,2,0,0,0,.4-.59,1.41,1.41,0,0,0,.09-.69,2.2,2.2,0,0,0-.4-1.05,10.4,10.4,0,0,0-1.15-1.47l-7.23-8a7.41,7.41,0,0,0-2.8.06l3.46-3.13a4.82,4.82,0,0,0,.5.11c.26.05.48.09.67.14l13.66,1.82-5-5.47A6.85,6.85,0,0,0,36,21.3a1.64,1.64,0,0,0-1.6.17Z"/><path class="cls-1" d="M58,7.15q4.16-1.68,7.09-.7a7.07,7.07,0,0,1,4.32,4.39,7.8,7.8,0,0,1-.13,6.83,10.41,10.41,0,0,1-5.61,4.71L57.23,25l0-.1c.93-.84,1.26-1.58,1-2.21L53.26,10.51c-.25-.62-.94-.77-2.08-.46l0-.11Zm6.61,14.4a4.68,4.68,0,0,0,2.94-2.85c.42-1.28.17-3.08-.77-5.39a10.49,10.49,0,0,0-3.93-5.22,5.85,5.85,0,0,0-5.57-.24l-1.44.58,5.56,13.72A7.88,7.88,0,0,0,64.62,21.55Z"/><path class="cls-1" d="M89.91,11,90,11l-.55,5-.06.53-.86-.4L76.38,17.86v-.12c1.1-.59,1.61-1.22,1.5-1.9l-1.82-13c-.09-.66-.72-1-1.9-.95l0-.12L86.76,0l1.42,3.93L88.1,4c-.63-.69-1.12-1.2-1.46-1.53a7.25,7.25,0,0,0-1.26-.94A3.91,3.91,0,0,0,83.85,1,7.73,7.73,0,0,0,82,1.05l-2.9.4L80.12,9l1.93-.27a6.16,6.16,0,0,0,3-1,3.4,3.4,0,0,0,1.07-2.35L87,11.12a3.32,3.32,0,0,0-1.68-1.93,6.41,6.41,0,0,0-3.18-.14l-1.93.27,1,7.48,3-.42a6,6,0,0,0,2.48-.88,5.81,5.81,0,0,0,1.72-1.7A19.82,19.82,0,0,0,89.91,11Z"/><path class="cls-1" d="M113,1.68q6.41,1.22,5.51,5.89a4.9,4.9,0,0,1-2.8,3.7,9.13,9.13,0,0,1-5.72.47l-2.61-.49-.84,4.39c-.12.65.38,1.16,1.51,1.52l0,.11L101.43,16l0-.11c1.18.09,1.83-.2,2-.86l2.53-13.36q.19-1-1.5-1.5l0-.13Zm-2.07,9.86a3.72,3.72,0,0,0,2.87-.33c.64-.45,1.12-1.51,1.44-3.15a9.72,9.72,0,0,0,.19-2,6.15,6.15,0,0,0-.34-1.81,3.08,3.08,0,0,0-1.17-1.55,5.53,5.53,0,0,0-2.25-.9l-2.41-.46-1.71,9A13,13,0,0,0,110.92,11.54Z"/><path class="cls-1" d="M133.26,22.74a10.62,10.62,0,0,0,.72,2.39,10.45,10.45,0,0,0,1.16,1.77l0,.06-4.54-2.1.17-.36-1.38-7.41-2.47-1.15-2.19,4.74c-.28.61.09,1.22,1.09,1.85l0,.1-6.09-2.82,0-.1c1.12.37,1.83.25,2.1-.36L127.52,7c.28-.6-.08-1.21-1.09-1.83l0-.11,7.94,3.67q5.94,2.76,4.09,6.73a4.36,4.36,0,0,1-2.38,2.26,7,7,0,0,1-3.8.33ZM130.79,7.52l-3.52,7.61a13.57,13.57,0,0,0,3.13,2,3.68,3.68,0,0,0,2.79.37A4.55,4.55,0,0,0,135.27,15a7.68,7.68,0,0,0,.6-1.74,4.84,4.84,0,0,0,0-1.66A2.94,2.94,0,0,0,135.1,10a6.28,6.28,0,0,0-2-1.38Z"/><path class="cls-1" d="M148.47,19.07a9.18,9.18,0,0,1,6.41,2.33,9.1,9.1,0,0,1,3.44,5.87,7.91,7.91,0,0,1-2,6.33,7.93,7.93,0,0,1-5.87,3.1,9.13,9.13,0,0,1-6.4-2.32,9.19,9.19,0,0,1-3.45-5.88,7.9,7.9,0,0,1,2-6.35A7.88,7.88,0,0,1,148.47,19.07Zm-3.38,15.61a3.86,3.86,0,0,0,3.71.75,8,8,0,0,0,4-2.81,12.56,12.56,0,0,0,2.25-4,9.28,9.28,0,0,0,.5-4.28,4.82,4.82,0,0,0-1.67-3.27,3.9,3.9,0,0,0-3.71-.77,8,8,0,0,0-4,2.79,12.73,12.73,0,0,0-2.26,4,9.59,9.59,0,0,0-.5,4.29A4.83,4.83,0,0,0,145.09,34.68Z"/><path class="cls-1" d="M170.89,39c1.72,2.44,2.47,4.69,2.28,6.75a7.1,7.1,0,0,1-3.31,5.2,7.8,7.8,0,0,1-6.67,1.41A10.44,10.44,0,0,1,157.33,48l-4-5.69.1-.07c1,.72,1.82.88,2.38.48l10.74-7.54c.55-.39.54-1.09,0-2.13l.1-.07Zm-12.54,9.68a4.68,4.68,0,0,0,3.44,2.22c1.34.13,3-.53,5.07-2a10.45,10.45,0,0,0,4.21-5,5.83,5.83,0,0,0-1-5.47l-.89-1.27L157,45.72A8,8,0,0,0,158.35,48.71Z"/><path class="cls-1" d="M167.26,67.18a9.67,9.67,0,0,1-.44-1.62,7.11,7.11,0,0,1-.06-1.87,6,6,0,0,1,.49-1.94A5.3,5.3,0,0,1,168.6,60,7.29,7.29,0,0,1,171,58.62l8.21-3.06c.63-.23.8-.92.52-2.07l.11,0,2.34,6.28-.11.05c-.54-1.06-1.12-1.47-1.75-1.24l-8.48,3.16A7.48,7.48,0,0,0,169.5,63a3.79,3.79,0,0,0-1.18,1.62,4.61,4.61,0,0,0-.27,1.58,4.39,4.39,0,0,0,.28,1.44,4.84,4.84,0,0,0,.88,1.48,5.55,5.55,0,0,0,1.42,1.15,4.46,4.46,0,0,0,2,.54,6.26,6.26,0,0,0,2.48-.42l6.22-2.32a5.15,5.15,0,0,0,2.37-1.43A1.87,1.87,0,0,0,184,65l.12,0,1.48,4-.12,0a3,3,0,0,0-.38-.6,1.55,1.55,0,0,0-.56-.36,2,2,0,0,0-1,0,8.2,8.2,0,0,0-1.58.45l-6.39,2.38a6.45,6.45,0,0,1-5.1,0A6.07,6.07,0,0,1,167.26,67.18Z"/><path class="cls-1" d="M175.29,93.25A5.92,5.92,0,0,1,173,91.07a8.39,8.39,0,0,1-1.19-3.76,9.23,9.23,0,0,1,1.69-6.71,8.34,8.34,0,0,1,9.46-2.74,7.68,7.68,0,0,1,2.9,2,11,11,0,0,1,1.9,2.94,11.55,11.55,0,0,1,.91,3.47,7.25,7.25,0,0,1-1.8,6.17L182,89.52l0-.07a7,7,0,0,0,3.12,0,3.71,3.71,0,0,0,2.24-1.55A4.23,4.23,0,0,0,188,85a4.53,4.53,0,0,0-2-3.44,7.34,7.34,0,0,0-4.9-.89,9.71,9.71,0,0,0-6,2.67,6.32,6.32,0,0,0-2,5.42,7,7,0,0,0,.74,2.51,4.64,4.64,0,0,0,1.56,1.81Z"/><path class="cls-1" d="M186.53,115.31,182,113.15v-.09a4,4,0,0,0,3.45-.41,4.37,4.37,0,0,0,1.51-3l.12-.87-14.2-2a1.09,1.09,0,0,0-1.11.38,4.09,4.09,0,0,0-.62,1.62h-.12l1.08-7.56h.11a4,4,0,0,0,.16,1.73,1.08,1.08,0,0,0,.95.67l14.2,2a6.39,6.39,0,0,0-.46-3.93,7.91,7.91,0,0,0-3.06-2.8l0-.1,4.62,1.44Z"/><path class="cls-1" d="M181.7,124.48a9.22,9.22,0,0,1-.42,6.81,9.12,9.12,0,0,1-4.64,5,8.73,8.73,0,0,1-11.28-4.84,10,10,0,0,1,5.06-11.78,8.67,8.67,0,0,1,11.28,4.84Zm-15.94,1.2a3.89,3.89,0,0,0,.34,3.78,8.15,8.15,0,0,0,3.83,3,12.66,12.66,0,0,0,4.45,1,9.56,9.56,0,0,0,4.25-.74,4.85,4.85,0,0,0,2.66-2.54,3.91,3.91,0,0,0-.32-3.78,7.92,7.92,0,0,0-3.81-3,12.67,12.67,0,0,0-4.48-1,9.58,9.58,0,0,0-4.26.74A4.88,4.88,0,0,0,165.76,125.68Z"/><path class="cls-1" d="M163.18,148.36q-4.34,3.55-7.31,1.26a4.48,4.48,0,0,1-1.78-3.58,7.15,7.15,0,0,1,1.77-4.59,10.21,10.21,0,0,1,2.7-2.5,7.36,7.36,0,0,1,2.86-1.12l1.37,3.76a4.26,4.26,0,0,0-3.79-1.2,5.25,5.25,0,0,0-3.42,2,3.78,3.78,0,0,0-.75,1.5,2.2,2.2,0,0,0,0,1.33,4.2,4.2,0,0,0,.52,1,3.66,3.66,0,0,0,.73.74,2.29,2.29,0,0,0,2.25.5,11.38,11.38,0,0,0,3-1.89,8.39,8.39,0,0,1,4.42-2.15,4.68,4.68,0,0,1,3.34.92,4,4,0,0,1,1.64,3.39,7.47,7.47,0,0,1-1.77,4.31,8.11,8.11,0,0,1-5.25,3.33l-1.32-3.82a4.1,4.1,0,0,0,3.64,1.34,4.91,4.91,0,0,0,3.33-1.92,2.55,2.55,0,0,0,.66-2.2,3.19,3.19,0,0,0-1.18-1.72,3.37,3.37,0,0,0-1.41-.67,2.67,2.67,0,0,0-1.46.17,7.43,7.43,0,0,0-1.38.7A13.23,13.23,0,0,0,163.18,148.36Z"/><rect class="cls-1" x="127.08" y="163.8" width="21.61" height="2"/><rect class="cls-1" x="39.79" y="163.8" width="21.61" height="2"/></g></g></svg>