<svg xmlns="http://www.w3.org/2000/svg" viewBox="0 0 83.97 111.65"><defs><style>.cls-1{fill:#113d66;}</style></defs><g id="Capa_2" data-name="Capa 2"><g id="Capa_1-2" data-name="Capa 1"><path class="cls-1" d="M26.87,0Q43.07,0,51.6,7.28t8.53,20.61q0,14.52-9.7,22.72T25.18,58.82H0v-.41c4.27-1.56,6.38-3.59,6.36-6.07V4.8Q6.36,1.19,0,.45V0Zm2.62,57.3q9,0,13.72-5.58T48,32.61q0-14.52-6.09-22.89T23.5,1.35H17.88V55A28.74,28.74,0,0,0,29.49,57.3Z"/><path class="cls-1" d="M83.6,92.5l.37.16-4.39,17.15-.5,1.84-2.87-1.84H33.48v-.41A9.89,9.89,0,0,0,38.05,106a9.05,9.05,0,0,0,1.78-5.56V55.79q0-3.61-6.35-4.35V51h25.1v.45a14.89,14.89,0,0,0-5.42,1.29,3.23,3.23,0,0,0-1.8,3.06v52.66h6.48a32,32,0,0,0,4.39-.28c1.36-.2,2.58-.36,3.65-.5a9.48,9.48,0,0,0,3.32-1.13c1.15-.61,2-1.06,2.69-1.35a10.76,10.76,0,0,0,2.56-2c1.07-1,1.81-1.69,2.24-2A22.26,22.26,0,0,0,79,98.55c1.12-1.41,1.85-2.34,2.18-2.79S82.31,94.22,83.6,92.5Z"/></g></g></svg>