<?xml version="1.0" encoding="utf-8"?>
<!-- Generator: Adobe Illustrator 24.0.2, SVG Export Plug-In . SVG Version: 6.00 Build 0)  -->
<svg version="1.1" id="Capa_1" xmlns="http://www.w3.org/2000/svg" xmlns:xlink="http://www.w3.org/1999/xlink" x="0px" y="0px"
	 viewBox="0 0 30.6 38" style="enable-background:new 0 0 30.6 38;" xml:space="preserve">
<style type="text/css">
	.st0{fill:#2EC9E5;}
</style>
<g id="Capa_2_1_">
	<g id="ELEMENTS">
		<path class="st0" d="M20.8,18.7c4.7-3,6.1-9.3,3.1-14s-9.3-6.1-14-3.1s-6.1,9.3-3.1,14c0.8,1.2,1.9,2.3,3.1,3.1
			C3.9,21,0,26.7,0,33c0,2.8,2.2,5,5,5h20.7c2.8,0,5-2.2,5-5C30.6,26.7,26.7,21,20.8,18.7z M7.8,10.2c0-4.2,3.4-7.5,7.5-7.5
			s7.5,3.4,7.5,7.5s-3.4,7.5-7.5,7.5c0,0,0,0,0,0C11.2,17.7,7.8,14.3,7.8,10.2z M25.7,35.4H5c-1.3,0-2.4-1.1-2.4-2.4c0,0,0,0,0,0
			c-0.4-7,5-13,12-13.4s13,5,13.4,12c0,0.5,0,1,0,1.4C28,34.3,27,35.4,25.7,35.4z"/>
	</g>
</g>
</svg>
