<?xml version="1.0" encoding="utf-8"?>
<!-- Generator: Adobe Illustrator 24.0.2, SVG Export Plug-In . SVG Version: 6.00 Build 0)  -->
<svg version="1.1" id="Capa_1" xmlns="http://www.w3.org/2000/svg" xmlns:xlink="http://www.w3.org/1999/xlink" x="0px" y="0px"
	 viewBox="0 0 33.3 36.2" style="enable-background:new 0 0 33.3 36.2;" xml:space="preserve">
<style type="text/css">
	.st0{fill:#2EC9E5;}
</style>
<g id="Capa_2_1_">
	<g id="ELEMENTS">
		<path class="st0" d="M32.8,33.3L27,27.5c6.4-6.1,6.6-16.2,0.5-22.6S11.3-1.6,4.9,4.5S-1.7,20.7,4.4,27c3,3.1,7.2,4.9,11.6,4.9
			c2.9,0,5.8-0.8,8.3-2.4l6.1,6.1c0.3,0.3,0.7,0.5,1.2,0.5c0.9,0,1.7-0.8,1.7-1.7C33.3,34,33.1,33.6,32.8,33.3L32.8,33.3z M3.4,16
			C3.4,9.1,9,3.4,15.9,3.4c6.9,0,12.6,5.6,12.6,12.6c0,6.9-5.6,12.6-12.5,12.6C9.1,28.6,3.4,22.9,3.4,16z"/>
	</g>
</g>
</svg>
